<svg width="1200" height="360" viewBox="0 0 1200 360" fill="none" xmlns="http://www.w3.org/2000/svg">
  <rect width="1200" height="360" rx="44" fill="url(#bg)"/>
  <rect x="16" y="16" width="1168" height="328" rx="32" stroke="url(#frame)" stroke-width="2"/>
  <g filter="url(#glow)">
    <path d="M171 186L286 78L237 179L351 187L222 286L271 197L171 186Z" fill="url(#shard)"/>
    <circle cx="204" cy="179" r="72" stroke="url(#ring)" stroke-width="10"/>
    <circle cx="204" cy="179" r="104" stroke="url(#ringFaint)" stroke-width="2"/>
  </g>
  <g opacity="0.68">
    <path d="M57 278C167 171 251 129 431 109" stroke="#70B5FF" stroke-opacity="0.55" stroke-width="3" stroke-linecap="round"/>
    <path d="M746 290C924 248 1040 184 1142 84" stroke="#6FFFF0" stroke-opacity="0.32" stroke-width="3" stroke-linecap="round"/>
    <path d="M799 71L1016 71" stroke="#70B5FF" stroke-opacity="0.22" stroke-width="4" stroke-linecap="round"/>
    <path d="M825 101L1083 101" stroke="#70B5FF" stroke-opacity="0.15" stroke-width="2" stroke-linecap="round"/>
  </g>
  <text x="382" y="160" fill="#F4FBFF" font-family="Segoe UI, Verdana, sans-serif" font-size="92" font-weight="800" letter-spacing="8">STARFALL</text>
  <text x="385" y="245" fill="#79B5FF" font-family="Segoe UI, Verdana, sans-serif" font-size="74" font-weight="700" letter-spacing="12">SALVAGE</text>
  <text x="387" y="294" fill="#98B6DE" font-family="Segoe UI, Verdana, sans-serif" font-size="22" font-weight="600" letter-spacing="4">
    PROCEDURAL ROGUELITE CONTRACTS ACROSS THE SHATTERED FRONTIER
  </text>
  <defs>
    <linearGradient id="bg" x1="600" y1="0" x2="600" y2="360" gradientUnits="userSpaceOnUse">
      <stop stop-color="#0E1730"/>
      <stop offset="1" stop-color="#070C16"/>
    </linearGradient>
    <linearGradient id="frame" x1="94" y1="39" x2="1115" y2="335" gradientUnits="userSpaceOnUse">
      <stop stop-color="#7EC1FF" stop-opacity="0.55"/>
      <stop offset="1" stop-color="#77FFC4" stop-opacity="0.15"/>
    </linearGradient>
    <linearGradient id="shard" x1="171" y1="78" x2="351" y2="286" gradientUnits="userSpaceOnUse">
      <stop stop-color="#F2FBFF"/>
      <stop offset="0.5" stop-color="#7EC1FF"/>
      <stop offset="1" stop-color="#78FFCC"/>
    </linearGradient>
    <linearGradient id="ring" x1="132" y1="107" x2="276" y2="251" gradientUnits="userSpaceOnUse">
      <stop stop-color="#7EC1FF"/>
      <stop offset="1" stop-color="#77FFC4"/>
    </linearGradient>
    <linearGradient id="ringFaint" x1="100" y1="75" x2="308" y2="283" gradientUnits="userSpaceOnUse">
      <stop stop-color="#F5FBFF" stop-opacity="0.85"/>
      <stop offset="1" stop-color="#79B5FF" stop-opacity="0.08"/>
    </linearGradient>
    <filter id="glow" x="119" y="26" width="284" height="312" filterUnits="userSpaceOnUse" color-interpolation-filters="sRGB">
      <feFlood flood-opacity="0" result="BackgroundImageFix"/>
      <feBlend mode="normal" in="SourceGraphic" in2="BackgroundImageFix" result="shape"/>
      <feGaussianBlur stdDeviation="18" result="effect1_foregroundBlur"/>
    </filter>
  </defs>
</svg>
